<svg width="36" height="36" viewBox="0 0 36 36" fill="none" xmlns="http://www.w3.org/2000/svg">
<g clip-path="url(#clip0_331_3784)">
<path fill-rule="evenodd" clip-rule="evenodd" d="M13.4918 4.93921H28.6689C30.497 4.93921 31.4111 4.93921 32.0827 5.30556C32.6727 5.62738 33.1375 6.13798 33.4027 6.7555C33.7045 7.45844 33.6189 8.36851 33.4478 10.1886L32.2176 23.2698C32.0731 24.806 32.0009 25.574 31.6552 26.1547C31.3509 26.6661 30.9012 27.0755 30.3636 27.3306C29.7531 27.6204 28.9816 27.6204 27.4387 27.6204H9.15988C7.61693 27.6204 6.84546 27.6204 6.23497 27.3306C5.6973 27.0755 5.24768 26.6661 4.94329 26.1547C4.59767 25.574 4.52543 24.806 4.38097 23.2698L3.15076 10.1886C2.97959 8.36851 2.89401 7.45844 3.19586 6.7555C3.46103 6.13798 3.92586 5.62738 4.51584 5.30556C4.87256 5.11097 5.29768 5.01974 5.89184 4.97697C5.92075 4.79306 5.96616 4.6378 6.03527 4.49646C6.22362 4.11126 6.53079 3.79679 6.91145 3.59943C7.34436 3.375 7.91641 3.375 9.06052 3.375H10.3294C11.4735 3.375 12.0455 3.375 12.4784 3.59943C12.8591 3.79679 13.1663 4.11126 13.3546 4.49646C13.419 4.62802 13.4628 4.77165 13.4918 4.93921Z" fill="#E3D216"/>
<path d="M0.775792 13.8542C0.507829 11.9657 0.373847 11.0214 0.66057 10.2878C0.912272 9.64376 1.37872 9.10645 1.981 8.76677C2.66708 8.37982 3.62078 8.37982 5.52819 8.37982H31.0705C32.9779 8.37982 33.9316 8.37982 34.6177 8.76677C35.22 9.10645 35.6864 9.64376 35.9381 10.2878C36.2248 11.0214 36.0909 11.9657 35.8229 13.8542L33.7448 28.4995C33.5373 29.9623 33.4335 30.6937 33.0809 31.2439C32.7702 31.7287 32.3265 32.1139 31.8028 32.3534C31.2085 32.6252 30.4698 32.6252 28.9924 32.6252H7.60626C6.12886 32.6252 5.39016 32.6252 4.79588 32.3534C4.27219 32.1139 3.82849 31.7287 3.51778 31.2439C3.1652 30.6937 3.06142 29.9623 2.85387 28.4995L0.775792 13.8542Z" fill="#F9EA4A"/>
<path d="M24.0151 16.8099C23.5891 16.7492 23.2884 16.3551 23.3342 15.9272C23.3904 15.4021 22.9414 14.9536 22.4179 15.0224L22.0152 15.0753C21.5102 15.1417 21.0233 14.8615 20.8269 14.3916L20.6832 14.0477C20.4768 13.5537 19.8644 13.3804 19.4297 13.6928L19.4113 13.706C19.0614 13.9576 18.5757 13.8904 18.3072 13.5533C17.8555 12.9862 16.9434 13.2544 16.8705 13.9757L16.8198 14.4776C16.7796 14.8764 16.9781 15.2615 17.3262 15.4601L22.8509 18.6109C23.1919 18.8053 23.6146 18.7844 23.9347 18.5572L24.3649 18.2519C24.9536 17.8341 24.7299 16.9116 24.0151 16.8099Z" fill="black"/>
<path d="M14.0951 17.0144C12.5133 18.0242 11.7732 19.7223 12.0594 21.5186L12.8145 26.2595C12.9123 26.8743 13.2864 27.4127 13.8322 27.7239C14.3782 28.0353 15.0371 28.0859 15.6249 27.8625L20.1592 26.138C21.8769 25.4847 22.9955 24.0022 23.0903 22.1441L23.1029 20.6799C23.1091 19.9555 22.7231 19.2843 22.0938 18.9254L17.3968 16.2468C16.7775 15.8936 16.017 15.8968 15.4007 16.2552L14.0951 17.0144ZM13.8165 19.7934C14.0422 19.4071 14.408 19.1978 14.6328 19.3259C14.8578 19.4542 14.8569 19.8716 14.6311 20.258C14.4052 20.6444 14.0399 20.8536 13.8149 20.7253C13.5901 20.597 13.5906 20.1798 13.8165 19.7934ZM14.6503 23.8602C14.4244 24.2468 14.0591 24.4559 13.8343 24.3277C13.6093 24.1994 13.61 23.7822 13.8359 23.3956C14.0616 23.0097 14.4272 22.8 14.6522 22.9283C14.8769 23.0566 14.876 23.4741 14.6503 23.8602ZM17.5636 25.6618C17.3377 26.0481 16.9724 26.2574 16.7474 26.1291C16.5226 26.0007 16.5233 25.5836 16.749 25.1972C16.975 24.8108 17.3405 24.6016 17.5653 24.7299C17.7903 24.8582 17.7893 25.2754 17.5636 25.6618ZM20.0611 20.1363C20.2868 19.7501 20.6526 19.5409 20.8774 19.669C21.1024 19.7973 21.1015 20.2147 20.8758 20.6009C20.6498 20.9875 20.2845 21.1968 20.0595 21.0684C19.8347 20.9401 19.8352 20.5229 20.0611 20.1363ZM19.9783 23.3076C20.2042 22.9212 20.5698 22.7118 20.7948 22.8401C21.0195 22.9682 21.0186 23.3856 20.7927 23.772C20.567 24.1584 20.2017 24.3676 19.9769 24.2393C19.7519 24.111 19.7526 23.6941 19.9783 23.3076ZM17.7121 22.0151C17.4861 22.4015 17.1208 22.6106 16.8958 22.4824C16.671 22.3541 16.6715 21.9369 16.8974 21.5506C17.1231 21.1641 17.4889 20.9546 17.7137 21.083C17.9387 21.2113 17.9377 21.6287 17.7121 22.0151ZM16.6168 18.0322C16.8425 17.6458 17.2078 17.4366 17.433 17.5649C17.6578 17.6931 17.6569 18.1105 17.4312 18.4968C17.2053 18.883 16.84 19.0925 16.6152 18.9641C16.3899 18.8358 16.3909 18.4186 16.6168 18.0322Z" fill="black"/>
</g>
<defs>
<clipPath id="clip0_331_3784">
<rect width="36" height="36" fill="white"/>
</clipPath>
</defs>
</svg>
