<svg width="24" height="24" viewBox="0 0 24 24" fill="none" xmlns="http://www.w3.org/2000/svg">
<path d="M12.0039 13.1239L8.3679 16.6244M12.0039 13.1239C12.0039 13.1239 14.22 15.2574 15.64 16.6244M12.0039 13.1239V21M19.6305 16.4659C20.5171 16.0006 21.2175 15.2643 21.6211 14.3732C22.0247 13.4821 22.1086 12.487 21.8596 11.5449C21.6105 10.6028 21.0426 9.76735 20.2456 9.17046C19.4486 8.57357 18.4677 8.24921 17.458 8.24857H16.3126C16.0375 7.22401 15.5247 6.27284 14.8127 5.46656C14.1008 4.66027 13.2082 4.01986 12.2022 3.59346C11.1961 3.16707 10.1028 2.96578 9.00431 3.00475C7.90583 3.04371 6.83083 3.32191 5.86011 3.81842C4.88939 4.31493 4.04821 5.01684 3.39983 5.87138C2.75144 6.72591 2.31272 7.71084 2.11664 8.75211C1.92055 9.79337 1.97222 10.8639 2.26774 11.8832C2.56327 12.9024 3.09497 13.844 3.82286 14.6369" stroke="white" stroke-width="2" stroke-linecap="square"/>
</svg>
