<svg width="25" height="24" viewBox="0 0 25 24" fill="none" xmlns="http://www.w3.org/2000/svg">
<path d="M22.5 10.7822C22.5 8.89049 22.5 7.94462 22.1389 7.22208C21.8214 6.58651 21.3146 6.06977 20.6913 5.74593C19.9827 5.37778 19.055 5.37778 17.1998 5.37778H13.6172C13.587 5.37778 13.572 5.37778 13.5582 5.37754C12.888 5.36619 12.2905 4.94401 12.0447 4.30809C12.0397 4.29503 12.0344 4.28064 12.0238 4.25185C12.0027 4.19438 11.992 4.16546 11.982 4.13938C11.4904 2.86753 10.2955 2.02318 8.95504 2.00047C8.92752 2 8.89737 2 8.83706 2H7.63624C5.9355 2 5.08513 2 4.42458 2.31083C3.70923 2.64744 3.13496 3.23301 2.80483 3.96243C2.5 4.63597 2.5 5.50307 2.5 7.23725V15.5956C2.5 17.4873 2.5 18.4332 2.86106 19.1557C3.17865 19.7913 3.68542 20.308 4.30873 20.6318C5.01734 21 5.94496 21 7.80021 21H14.5" stroke-width="2"/>
<path d="M20 14V21M16.5 17.5H23.5" stroke-width="2" stroke-linecap="square"/>
</svg>
