<svg width="36" height="36" viewBox="0 0 36 36" fill="none" xmlns="http://www.w3.org/2000/svg">
<g clip-path="url(#clip0_331_3854)">
<path fill-rule="evenodd" clip-rule="evenodd" d="M13.4918 4.93921H28.6689C30.497 4.93921 31.4111 4.93921 32.0827 5.30556C32.6727 5.62738 33.1375 6.13798 33.4027 6.7555C33.7045 7.45844 33.6189 8.36851 33.4478 10.1886L32.2176 23.2698C32.0731 24.806 32.0009 25.574 31.6552 26.1547C31.3509 26.6661 30.9012 27.0755 30.3636 27.3306C29.7531 27.6204 28.9816 27.6204 27.4387 27.6204H9.15988C7.61693 27.6204 6.84546 27.6204 6.23497 27.3306C5.6973 27.0755 5.24768 26.6661 4.94329 26.1547C4.59767 25.574 4.52543 24.806 4.38097 23.2698L3.15076 10.1886C2.97959 8.36851 2.89401 7.45844 3.19586 6.7555C3.46103 6.13798 3.92586 5.62738 4.51584 5.30556C4.87256 5.11097 5.29768 5.01974 5.89184 4.97697C5.92075 4.79306 5.96616 4.6378 6.03527 4.49646C6.22362 4.11126 6.53079 3.79679 6.91145 3.59943C7.34436 3.375 7.91641 3.375 9.06052 3.375H10.3294C11.4735 3.375 12.0455 3.375 12.4784 3.59943C12.8591 3.79679 13.1663 4.11126 13.3546 4.49646C13.419 4.62802 13.4628 4.77165 13.4918 4.93921Z" fill="#E3D216"/>
<path d="M0.775792 13.8542C0.507829 11.9657 0.373847 11.0214 0.66057 10.2878C0.912272 9.64376 1.37872 9.10645 1.981 8.76677C2.66708 8.37982 3.62078 8.37982 5.52819 8.37982H31.0705C32.9779 8.37982 33.9316 8.37982 34.6177 8.76677C35.22 9.10645 35.6864 9.64376 35.9381 10.2878C36.2248 11.0214 36.0909 11.9657 35.8229 13.8542L33.7448 28.4995C33.5373 29.9623 33.4335 30.6937 33.0809 31.2439C32.7702 31.7287 32.3265 32.1139 31.8028 32.3534C31.2085 32.6252 30.4698 32.6252 28.9924 32.6252H7.60626C6.12886 32.6252 5.39016 32.6252 4.79588 32.3534C4.27219 32.1139 3.82849 31.7287 3.51778 31.2439C3.1652 30.6937 3.06142 29.9623 2.85387 28.4995L0.775792 13.8542Z" fill="#F9EA4A"/>
<path d="M24.749 19.4062V26.1562C24.749 26.38 24.6601 26.5946 24.5019 26.7529C24.3437 26.9111 24.1291 27 23.9053 27H17.1553C16.9315 27 16.7169 26.9111 16.5587 26.7529C16.4004 26.5946 16.3115 26.38 16.3115 26.1562V19.4062C16.3115 19.1825 16.4004 18.9679 16.5587 18.8096C16.7169 18.6514 16.9315 18.5625 17.1553 18.5625H23.9053C24.1291 18.5625 24.3437 18.6514 24.5019 18.8096C24.6601 18.9679 24.749 19.1825 24.749 19.4062ZM12.0928 13.5C11.869 13.5 11.6544 13.5889 11.4962 13.7471C11.3379 13.9054 11.249 14.12 11.249 14.3437V21.9375C11.249 22.1613 11.3379 22.3759 11.4962 22.5341C11.6544 22.6924 11.869 22.7812 12.0928 22.7812H14.624V17.2969C14.624 17.185 14.6685 17.0777 14.7476 16.9986C14.8267 16.9194 14.934 16.875 15.0459 16.875H20.5303V14.3437C20.5303 14.12 20.4414 13.9054 20.2831 13.7471C20.1249 13.5889 19.9103 13.5 19.6865 13.5H12.0928Z" fill="black"/>
</g>
<defs>
<clipPath id="clip0_331_3854">
<rect width="36" height="36" fill="white"/>
</clipPath>
</defs>
</svg>
