<svg width="24" height="24" viewBox="0 0 24 24" fill="none" xmlns="http://www.w3.org/2000/svg">
<path d="M2 7.23725V15.5956C2 17.4873 2 18.4332 2.36106 19.1557C2.67865 19.7913 3.18542 20.308 3.80873 20.6318C4.51734 21 5.44496 21 7.30021 21H16.6998C18.555 21 19.4827 21 20.1913 20.6318C20.8146 20.308 21.3214 19.7913 21.6389 19.1557C22 18.4332 22 17.4873 22 15.5956V10.7822C22 8.89049 22 7.94462 21.6389 7.22208C21.3214 6.58651 20.8146 6.06977 20.1913 5.74593C19.4827 5.37778 18.555 5.37778 16.6998 5.37778H13.1172C13.087 5.37778 13.072 5.37778 13.0582 5.37754C12.388 5.36619 11.7905 4.94401 11.5447 4.30809C11.5397 4.29503 11.5344 4.28064 11.5238 4.25185C11.5027 4.19438 11.492 4.16546 11.482 4.13938C10.9904 2.86753 9.79553 2.02318 8.45504 2.00047C8.42752 2 8.39737 2 8.33706 2H7.13624C5.4355 2 4.58513 2 3.92458 2.31083C3.20923 2.64744 2.63496 3.23301 2.30483 3.96243C2 4.63597 2 5.50307 2 7.23725Z" fill="#F9EA4A"/>
</svg>
