<svg width="24" height="24" viewBox="0 0 24 24" fill="none" xmlns="http://www.w3.org/2000/svg">
<path d="M16.2361 5.83289C16.5518 5.7171 16.8934 5.65385 17.2499 5.65385C18.8607 5.65385 20.1666 6.94533 20.1666 8.53846C20.1666 10.1316 18.8607 11.4231 17.2499 11.4231C16.8934 11.4231 16.5518 11.3598 16.2361 11.244M1.5 19.5C2.3066 16.8378 4.38164 16.0385 9.08333 16.0385C13.785 16.0385 15.86 16.8378 16.6667 19.5M17.8333 14.8846C20.6368 14.9942 21.9507 15.6211 22.5 17.1923M13.1667 8.53846C13.1667 10.7688 11.3385 12.5769 9.08333 12.5769C6.82817 12.5769 5 10.7688 5 8.53846C5 6.30808 6.82817 4.5 9.08333 4.5C11.3385 4.5 13.1667 6.30808 13.1667 8.53846Z" stroke="#FA3277" stroke-width="2" stroke-linecap="square"/>
</svg>
