<svg width="36" height="36" viewBox="0 0 36 36" fill="none" xmlns="http://www.w3.org/2000/svg">
<g clip-path="url(#clip0_331_2481)">
<path fill-rule="evenodd" clip-rule="evenodd" d="M13.4918 4.93921H28.6689C30.497 4.93921 31.4111 4.93921 32.0827 5.30556C32.6727 5.62738 33.1375 6.13798 33.4027 6.7555C33.7045 7.45844 33.6189 8.36851 33.4478 10.1886L32.2176 23.2698C32.0731 24.806 32.0009 25.574 31.6552 26.1547C31.3509 26.6661 30.9012 27.0755 30.3636 27.3306C29.7531 27.6204 28.9816 27.6204 27.4387 27.6204H9.15988C7.61693 27.6204 6.84546 27.6204 6.23497 27.3306C5.6973 27.0755 5.24768 26.6661 4.94329 26.1547C4.59767 25.574 4.52543 24.806 4.38097 23.2698L3.15076 10.1886C2.97959 8.36851 2.89401 7.45844 3.19586 6.7555C3.46103 6.13798 3.92586 5.62738 4.51584 5.30556C4.87256 5.11097 5.29768 5.01974 5.89184 4.97697C5.92075 4.79306 5.96616 4.6378 6.03527 4.49646C6.22362 4.11126 6.53079 3.79679 6.91145 3.59943C7.34436 3.375 7.91641 3.375 9.06052 3.375H10.3294C11.4735 3.375 12.0455 3.375 12.4784 3.59943C12.8591 3.79679 13.1663 4.11126 13.3546 4.49646C13.419 4.62802 13.4628 4.77165 13.4918 4.93921Z" fill="#E3D216"/>
<path d="M0.775792 13.8542C0.507829 11.9657 0.373847 11.0214 0.66057 10.2878C0.912272 9.64376 1.37872 9.10645 1.981 8.76677C2.66708 8.37982 3.62078 8.37982 5.52819 8.37982H31.0705C32.9779 8.37982 33.9316 8.37982 34.6177 8.76677C35.22 9.10645 35.6864 9.64376 35.9381 10.2878C36.2248 11.0214 36.0909 11.9657 35.8229 13.8542L33.7448 28.4995C33.5373 29.9623 33.4335 30.6937 33.0809 31.2439C32.7702 31.7287 32.3265 32.1139 31.8028 32.3534C31.2085 32.6252 30.4698 32.6252 28.9924 32.6252H7.60626C6.12886 32.6252 5.39016 32.6252 4.79588 32.3534C4.27219 32.1139 3.82849 31.7287 3.51778 31.2439C3.1652 30.6937 3.06142 29.9623 2.85387 28.4995L0.775792 13.8542Z" fill="#F9EA4A"/>
<path d="M18.7155 14.625C19.6553 14.6241 20.5836 14.8274 21.4328 15.2203C22.282 15.6132 23.0309 16.1858 23.625 16.8964L19.6121 20.8125L23.625 24.7286C23.0309 25.4392 22.282 26.0118 21.4328 26.4047C20.5836 26.7976 19.6553 27.0009 18.7155 27C15.2137 27 12.375 24.2299 12.375 20.8125C12.375 17.3951 15.2137 14.625 18.7155 14.625ZM18.7155 16.4813C18.4633 16.4813 18.2214 16.579 18.043 16.7531C17.8647 16.9272 17.7644 17.1632 17.7644 17.4094C17.7644 17.6555 17.8647 17.8916 18.043 18.0657C18.2214 18.2397 18.4633 18.3375 18.7155 18.3375C18.9678 18.3375 19.2097 18.2397 19.388 18.0657C19.5664 17.8916 19.6666 17.6555 19.6666 17.4094C19.6666 17.1632 19.5664 16.9272 19.388 16.7531C19.2097 16.579 18.9678 16.4813 18.7155 16.4813Z" fill="black"/>
</g>
<defs>
<clipPath id="clip0_331_2481">
<rect width="36" height="36" fill="white"/>
</clipPath>
</defs>
</svg>
