<svg width="40" height="40" viewBox="0 0 40 40" fill="none" xmlns="http://www.w3.org/2000/svg">
<rect x="2.13281" y="2.13257" width="35.7347" height="35.7347" rx="9.5" stroke="#444444"/>
<g clip-path="url(#clip0_133_7691)">
<path fill-rule="evenodd" clip-rule="evenodd" d="M27.68 20.1818C27.68 19.6145 27.6291 19.069 27.5345 18.5454H20V21.64H24.3055C24.12 22.64 23.5564 23.4872 22.7091 24.0545V26.0618H25.2945C26.8073 24.669 27.68 22.6181 27.68 20.1818Z" fill="#4285F4"/>
<path fill-rule="evenodd" clip-rule="evenodd" d="M20.0002 28C22.1602 28 23.9711 27.2837 25.2947 26.0618L22.7093 24.0546C21.9929 24.5346 21.0765 24.8182 20.0002 24.8182C17.9165 24.8182 16.1529 23.4109 15.5238 21.52H12.8511V23.5927C14.1674 26.2073 16.8729 28 20.0002 28Z" fill="#34A853"/>
<path fill-rule="evenodd" clip-rule="evenodd" d="M15.5236 21.52C15.3636 21.04 15.2727 20.5272 15.2727 20C15.2727 19.4727 15.3636 18.96 15.5236 18.48V16.4072H12.8509C12.3091 17.4872 12 18.709 12 20C12 21.2909 12.3091 22.5127 12.8509 23.5927L15.5236 21.52Z" fill="#FBBC05"/>
<path fill-rule="evenodd" clip-rule="evenodd" d="M20.0002 15.1818C21.1747 15.1818 22.2293 15.5855 23.0583 16.3782L25.3529 14.0836C23.9674 12.7927 22.1565 12 20.0002 12C16.8729 12 14.1674 13.7927 12.8511 16.4073L15.5238 18.48C16.1529 16.5891 17.9165 15.1818 20.0002 15.1818Z" fill="#EA4335"/>
</g>
<defs>
<clipPath id="clip0_133_7691">
<rect x="12" y="12" width="16" height="16" rx="6" fill="white"/>
</clipPath>
</defs>
</svg>
