<svg width="14" height="14" viewBox="0 0 14 14" fill="none" xmlns="http://www.w3.org/2000/svg">
<g clip-path="url(#clip0_192_5667)">
<path fill-rule="evenodd" clip-rule="evenodd" d="M13.144 6.77052C13.144 6.3167 13.1033 5.88033 13.0276 5.46143H7V7.93706H10.4444C10.296 8.73706 9.84509 9.41488 9.16727 9.8687V11.4745H11.2356C12.4458 10.3603 13.144 8.71961 13.144 6.77052Z" fill="#4285F4"/>
<path fill-rule="evenodd" clip-rule="evenodd" d="M7.00003 13.0253C8.72803 13.0253 10.1768 12.4522 11.2357 11.4748L9.16731 9.86894C8.59422 10.2529 7.86113 10.4799 7.00003 10.4799C5.33313 10.4799 3.92222 9.35404 3.41894 7.84131H1.28076V9.49949C2.33385 11.5911 4.49822 13.0253 7.00003 13.0253Z" fill="#34A853"/>
<path fill-rule="evenodd" clip-rule="evenodd" d="M3.41901 7.84116C3.29101 7.45716 3.21828 7.04698 3.21828 6.62516C3.21828 6.20334 3.29101 5.79316 3.41901 5.40916V3.75098H1.28082C0.84737 4.61498 0.600098 5.59243 0.600098 6.62516C0.600098 7.65789 0.84737 8.63534 1.28082 9.49934L3.41901 7.84116Z" fill="#FBBC05"/>
<path fill-rule="evenodd" clip-rule="evenodd" d="M7.00003 2.77055C7.93967 2.77055 8.78331 3.09346 9.44658 3.72764L11.2822 1.89201C10.1739 0.859279 8.72513 0.225098 7.00003 0.225098C4.49822 0.225098 2.33385 1.65928 1.28076 3.75092L3.41894 5.4091C3.92222 3.89637 5.33313 2.77055 7.00003 2.77055Z" fill="#EA4335"/>
</g>
<defs>
<clipPath id="clip0_192_5667">
<rect x="0.600098" y="0.225098" width="12.8" height="12.8" rx="6" fill="white"/>
</clipPath>
</defs>
</svg>
