<svg width="36" height="36" viewBox="0 0 36 36" fill="none" xmlns="http://www.w3.org/2000/svg">
<g clip-path="url(#clip0_331_3395)">
<path fill-rule="evenodd" clip-rule="evenodd" d="M13.4918 4.93921H28.6689C30.497 4.93921 31.4111 4.93921 32.0827 5.30556C32.6727 5.62738 33.1375 6.13798 33.4027 6.7555C33.7045 7.45844 33.6189 8.36851 33.4478 10.1886L32.2176 23.2698C32.0731 24.806 32.0009 25.574 31.6552 26.1547C31.3509 26.6661 30.9012 27.0755 30.3636 27.3306C29.7531 27.6204 28.9816 27.6204 27.4387 27.6204H9.15988C7.61693 27.6204 6.84546 27.6204 6.23497 27.3306C5.6973 27.0755 5.24768 26.6661 4.94329 26.1547C4.59767 25.574 4.52543 24.806 4.38097 23.2698L3.15076 10.1886C2.97959 8.36851 2.89401 7.45844 3.19586 6.7555C3.46103 6.13798 3.92586 5.62738 4.51584 5.30556C4.87256 5.11097 5.29768 5.01974 5.89184 4.97697C5.92075 4.79306 5.96616 4.6378 6.03527 4.49646C6.22362 4.11126 6.53079 3.79679 6.91145 3.59943C7.34436 3.375 7.91641 3.375 9.06052 3.375H10.3294C11.4735 3.375 12.0455 3.375 12.4784 3.59943C12.8591 3.79679 13.1663 4.11126 13.3546 4.49646C13.419 4.62802 13.4628 4.77165 13.4918 4.93921Z" fill="#E3D216"/>
<path d="M0.775792 13.8542C0.507829 11.9657 0.373847 11.0214 0.66057 10.2878C0.912272 9.64376 1.37872 9.10645 1.981 8.76677C2.66708 8.37982 3.62078 8.37982 5.52819 8.37982H31.0705C32.9779 8.37982 33.9316 8.37982 34.6177 8.76677C35.22 9.10645 35.6864 9.64376 35.9381 10.2878C36.2248 11.0214 36.0909 11.9657 35.8229 13.8542L33.7448 28.4995C33.5373 29.9623 33.4335 30.6937 33.0809 31.2439C32.7702 31.7287 32.3265 32.1139 31.8028 32.3534C31.2085 32.6252 30.4698 32.6252 28.9924 32.6252H7.60626C6.12886 32.6252 5.39016 32.6252 4.79588 32.3534C4.27219 32.1139 3.82849 31.7287 3.51778 31.2439C3.1652 30.6937 3.06142 29.9623 2.85387 28.4995L0.775792 13.8542Z" fill="#F9EA4A"/>
<path d="M23.6763 19.9489C23.6763 20.5481 23.1844 21.0337 22.5775 21.0337C21.9706 21.0337 21.4787 20.5481 21.4787 19.9489C21.4787 19.3498 21.9706 18.8642 22.5775 18.8642C23.1844 18.8642 23.6763 19.3498 23.6763 19.9489Z" fill="black"/>
<path fill-rule="evenodd" clip-rule="evenodd" d="M23.0764 12.4313C22.2422 12.176 21.4787 12.8268 21.4787 13.622V16.4128C20.4574 16.6068 19.27 16.719 17.999 16.719C16.728 16.719 15.5407 16.6068 14.5194 16.4128V13.622C14.5194 12.8268 13.7559 12.176 12.9216 12.4313C12.1488 12.6678 11.48 12.9679 10.9925 13.3314C10.5135 13.6885 10.124 14.1751 10.124 14.7854V23.9816C10.124 24.1474 10.1535 24.3056 10.206 24.4548C10.2531 24.5887 10.3188 24.7153 10.3984 24.8337C10.6531 25.2119 11.0605 25.522 11.5325 25.7753C12.0114 26.0325 12.596 26.2522 13.2525 26.4315C14.566 26.7901 16.2167 27 17.999 27C19.496 27 20.8983 26.8519 22.0853 26.593C23.2609 26.3365 24.269 25.9618 24.9438 25.4807C25.1079 25.3637 25.2628 25.2324 25.3975 25.0869C25.6807 24.7809 25.874 24.4121 25.874 23.9816V14.7854C25.874 14.1751 25.4846 13.6885 25.0056 13.3314C24.518 12.9679 23.8493 12.6678 23.0764 12.4313ZM24.7752 16.3981C24.754 16.4116 24.7327 16.425 24.7113 16.4381C24.0639 16.8357 23.1746 17.154 22.1491 17.3826C20.9486 17.6503 19.5228 17.8037 17.999 17.8037C16.4753 17.8037 15.0495 17.6503 13.8489 17.3826C12.8235 17.154 11.9342 16.8357 11.2867 16.4381C11.2653 16.425 11.244 16.4116 11.2229 16.3981V23.4509L13.452 21.3915L14.4571 20.5611C15.1876 19.9574 16.282 19.9905 16.9709 20.641L19.4038 22.9386C19.605 23.1285 19.9326 23.158 20.1717 22.9993L20.3408 22.8871C21.1936 22.3211 22.3439 22.3849 23.1223 23.0464L24.6195 24.3189C24.7421 24.1744 24.7752 24.0592 24.7752 23.9816V16.3981Z" fill="black"/>
</g>
<defs>
<clipPath id="clip0_331_3395">
<rect width="36" height="36" fill="white"/>
</clipPath>
</defs>
</svg>
