<svg width="44" height="44" viewBox="0 0 44 44" fill="none" xmlns="http://www.w3.org/2000/svg">
<path d="M20.625 31.1665C20.625 30.4071 20.0094 29.7915 19.25 29.7915C18.4906 29.7915 17.875 30.4071 17.875 31.1665C17.875 31.926 18.4906 32.5415 19.25 32.5415C20.0094 32.5415 20.625 31.926 20.625 31.1665Z" fill="black"/>
<path fill-rule="evenodd" clip-rule="evenodd" d="M15.8992 13.827H28.1004C34.2876 13.827 37.3811 13.827 39.119 15.6362C40.8566 17.4453 40.4478 20.2405 39.6301 25.8307L38.8546 31.132C38.2133 35.5159 37.8928 37.7078 36.248 39.0205C34.6031 40.3331 32.177 40.3331 27.3249 40.3331H16.6746C11.8226 40.3331 9.39664 40.3331 7.7518 39.0205C6.10695 37.7078 5.78631 35.5159 5.14505 31.132L4.36961 25.8307C3.55188 20.2405 3.14303 17.4454 4.88076 15.6362C6.61848 13.827 9.71207 13.827 15.8992 13.827Z" fill="black"/>
<path opacity="0.4" d="M15.601 3.66669H28.3979C28.824 3.66658 29.1509 3.6665 29.4365 3.69444C31.4675 3.89312 33.1299 5.11423 33.8349 6.7591H10.1641C10.869 5.11423 12.5314 3.89312 14.5624 3.69444C14.848 3.6665 15.1748 3.66658 15.601 3.66669Z" fill="black"/>
<path opacity="0.7" d="M11.5689 8.65821C9.01939 8.65821 6.92889 10.1978 6.23125 12.2402C6.21672 12.2827 6.20278 12.3255 6.18945 12.3685C6.91939 12.1475 7.67906 12.0031 8.44808 11.9045C10.4288 11.6506 12.9319 11.6507 15.8396 11.6509H28.4751C31.3828 11.6507 33.886 11.6506 35.8666 11.9045C36.6357 12.0031 37.3954 12.1475 38.1252 12.3685C38.112 12.3255 38.0979 12.2827 38.0834 12.2402C37.3859 10.1978 35.2953 8.65821 32.7459 8.65821H11.5689Z" fill="black"/>
</svg>
