<svg width="250" height="40" viewBox="0 0 250 40" fill="none" xmlns="http://www.w3.org/2000/svg">
<path d="M8.18774 9.00726L3.24793 13.8776C2.45232 14.6621 2.05452 15.0543 1.90281 15.5089C1.76936 15.9088 1.7657 16.3407 1.89235 16.7428C2.03633 17.1999 2.42743 17.5988 3.20963 18.3966L8.04356 23.3269C9.26645 24.5742 11.3863 23.7084 11.3863 21.9616C11.3863 20.8846 12.2594 20.0114 13.3365 20.0114H23.8792V12.2246H13.2655C12.2277 12.2246 11.3863 11.3833 11.3863 10.3454C11.3863 8.67765 9.37537 7.83633 8.18774 9.00726Z" fill="#F9EA4A"/>
<path d="M23.8792 12.2246H13.2655C12.2277 12.2246 11.3863 11.3833 11.3863 10.3454V10.3454C11.3863 8.67765 9.37537 7.83633 8.18774 9.00726L3.24793 13.8776C2.45232 14.6621 2.05452 15.0543 1.90281 15.5089C1.76936 15.9088 1.7657 16.3407 1.89235 16.7428C2.03633 17.1999 2.42743 17.5988 3.20963 18.3966L8.04356 23.3269C9.26645 24.5742 11.3863 23.7084 11.3863 21.9616V21.9616C11.3863 20.8846 12.2595 20.0114 13.3365 20.0114H23.8792" stroke="black" stroke-width="2.5"/>
<path d="M31.4871 30.9927L36.4269 26.1224C37.2225 25.3379 37.6203 24.9457 37.772 24.4911C37.9054 24.0912 37.9091 23.6593 37.7825 23.2572C37.6385 22.8001 37.2474 22.4012 36.4652 21.6034L36.4652 21.6034L31.6312 16.673C30.4084 15.4258 28.2885 16.2916 28.2885 18.0384C28.2885 19.1154 27.4154 19.9886 26.3383 19.9886L15.7956 19.9886L15.7956 27.7753L26.4093 27.7753C27.4471 27.7753 28.2885 28.6167 28.2885 29.6546C28.2885 31.3223 30.2994 32.1637 31.4871 30.9927Z" fill="#F9EA4A"/>
<path d="M15.7956 27.7753L26.4093 27.7753C27.4471 27.7753 28.2885 28.6167 28.2885 29.6546V29.6546C28.2885 31.3223 30.2994 32.1637 31.4871 30.9927L36.4269 26.1224C37.2225 25.3379 37.6203 24.9457 37.772 24.4911C37.9054 24.0912 37.9091 23.6593 37.7825 23.2572C37.6385 22.8001 37.2474 22.4012 36.4652 21.6034L31.6312 16.673C30.4084 15.4258 28.2885 16.2916 28.2885 18.0384V18.0384C28.2885 19.1154 27.4154 19.9886 26.3383 19.9886L15.7956 19.9886" stroke="black" stroke-width="2.5"/>
<path d="M64.416 26.292C62.688 27.988 60.536 28.836 57.96 28.836C55.384 28.836 53.232 27.996 51.504 26.316C49.792 24.62 48.936 22.564 48.936 20.148V20.1C48.936 17.668 49.8 15.604 51.528 13.908C53.272 12.212 55.432 11.364 58.008 11.364C60.584 11.364 62.728 12.212 64.44 13.908C66.168 15.588 67.032 17.636 67.032 20.052V20.1C67.032 22.532 66.16 24.596 64.416 26.292ZM54.912 23.292C55.728 24.188 56.76 24.636 58.008 24.636C59.256 24.636 60.272 24.204 61.056 23.34C61.856 22.46 62.256 21.396 62.256 20.148V20.1C62.256 18.852 61.848 17.788 61.032 16.908C60.232 16.012 59.208 15.564 57.96 15.564C56.712 15.564 55.688 16.004 54.888 16.884C54.088 17.748 53.688 18.804 53.688 20.052V20.1C53.688 21.332 54.096 22.396 54.912 23.292ZM77.6893 28.788C76.1373 28.788 74.8173 28.164 73.7293 26.916V28.5H69.1693V10.98H73.7293V17.244C74.8333 15.9 76.1453 15.228 77.6653 15.228C79.2653 15.228 80.6253 15.844 81.7453 17.076C82.8653 18.308 83.4253 19.932 83.4253 21.948V21.996C83.4253 24.044 82.8653 25.692 81.7453 26.94C80.6413 28.172 79.2893 28.788 77.6893 28.788ZM76.2973 24.972C77.0333 24.972 77.6573 24.7 78.1693 24.156C78.6973 23.596 78.9613 22.884 78.9613 22.02V21.972C78.9613 21.124 78.6973 20.42 78.1693 19.86C77.6573 19.3 77.0333 19.02 76.2973 19.02C75.5453 19.02 74.9133 19.3 74.4013 19.86C73.8893 20.42 73.6333 21.124 73.6333 21.972V22.02C73.6333 22.868 73.8893 23.572 74.4013 24.132C74.9133 24.692 75.5453 24.972 76.2973 24.972ZM85.3881 28.5V15.516H89.9481V17.292C91.0201 15.916 92.3081 15.228 93.8121 15.228C95.5721 15.228 96.8201 15.932 97.5561 17.34C98.7561 15.932 100.204 15.228 101.9 15.228C103.292 15.228 104.38 15.644 105.164 16.476C105.948 17.292 106.34 18.46 106.34 19.98V28.5H101.78V21.444C101.78 20.74 101.62 20.204 101.3 19.836C100.98 19.452 100.548 19.26 100.004 19.26C99.4441 19.26 98.9881 19.452 98.6361 19.836C98.3001 20.204 98.1321 20.74 98.1321 21.444V28.5H93.5961V21.444C93.5961 20.74 93.4361 20.204 93.1161 19.836C92.7961 19.452 92.3561 19.26 91.7961 19.26C91.2361 19.26 90.7881 19.452 90.4521 19.836C90.1161 20.204 89.9481 20.74 89.9481 21.444V28.5H85.3881ZM115.141 28.812C113.093 28.812 111.421 28.188 110.125 26.94C108.829 25.692 108.181 24.068 108.181 22.068V22.02C108.181 20.116 108.797 18.508 110.029 17.196C111.261 15.884 112.829 15.228 114.733 15.228C116.861 15.228 118.477 15.908 119.581 17.268C120.701 18.612 121.261 20.3 121.261 22.332C121.261 22.748 121.253 23.06 121.237 23.268H112.549C112.901 24.692 113.837 25.404 115.357 25.404C116.397 25.404 117.357 24.964 118.237 24.084L120.757 26.172C119.397 27.932 117.525 28.812 115.141 28.812ZM112.477 20.94H117.013C116.933 20.22 116.685 19.652 116.269 19.236C115.869 18.804 115.357 18.588 114.733 18.588C114.141 18.588 113.645 18.796 113.245 19.212C112.861 19.628 112.605 20.204 112.477 20.94ZM123.24 28.5V15.516H127.8V17.34C128.888 15.932 130.184 15.228 131.688 15.228C133.08 15.228 134.16 15.652 134.928 16.5C135.712 17.348 136.104 18.516 136.104 20.004V28.5H131.568V21.468C131.568 20.764 131.4 20.22 131.064 19.836C130.744 19.452 130.296 19.26 129.72 19.26C129.144 19.26 128.68 19.452 128.328 19.836C127.976 20.22 127.8 20.764 127.8 21.468V28.5H123.24ZM142.182 28.596L136.998 15.516H141.798L144.294 23.1L146.814 15.516H151.518L146.334 28.596H142.182ZM157.673 28.788C155.353 28.788 153.313 28.14 151.553 26.844L153.257 24.108C154.777 25.1 156.257 25.596 157.697 25.596C158.481 25.596 158.873 25.364 158.873 24.9V24.852C158.873 24.596 158.721 24.404 158.417 24.276C158.129 24.132 157.577 23.948 156.761 23.724C155.257 23.34 154.113 22.852 153.329 22.26C152.545 21.668 152.153 20.78 152.153 19.596V19.548C152.153 18.204 152.633 17.156 153.593 16.404C154.569 15.636 155.825 15.252 157.361 15.252C159.345 15.252 161.129 15.756 162.713 16.764L161.153 19.644C159.729 18.828 158.449 18.42 157.313 18.42C156.609 18.42 156.257 18.636 156.257 19.068V19.116C156.257 19.34 156.409 19.532 156.713 19.692C157.017 19.836 157.569 20.028 158.369 20.268C159.873 20.668 161.017 21.172 161.801 21.78C162.585 22.372 162.977 23.244 162.977 24.396V24.444C162.977 25.836 162.497 26.908 161.537 27.66C160.577 28.412 159.289 28.788 157.673 28.788ZM171.297 28.812C169.249 28.812 167.577 28.188 166.281 26.94C164.985 25.692 164.337 24.068 164.337 22.068V22.02C164.337 20.116 164.953 18.508 166.185 17.196C167.417 15.884 168.985 15.228 170.889 15.228C173.017 15.228 174.633 15.908 175.737 17.268C176.857 18.612 177.417 20.3 177.417 22.332C177.417 22.748 177.409 23.06 177.393 23.268H168.705C169.057 24.692 169.993 25.404 171.513 25.404C172.553 25.404 173.513 24.964 174.393 24.084L176.913 26.172C175.553 27.932 173.681 28.812 171.297 28.812ZM168.633 20.94H173.169C173.089 20.22 172.841 19.652 172.425 19.236C172.025 18.804 171.513 18.588 170.889 18.588C170.297 18.588 169.801 18.796 169.401 19.212C169.017 19.628 168.761 20.204 168.633 20.94ZM179.396 28.5V15.516H183.956V17.292C185.028 15.916 186.316 15.228 187.82 15.228C189.58 15.228 190.828 15.932 191.564 17.34C192.764 15.932 194.212 15.228 195.908 15.228C197.3 15.228 198.388 15.644 199.172 16.476C199.956 17.292 200.348 18.46 200.348 19.98V28.5H195.788V21.444C195.788 20.74 195.628 20.204 195.308 19.836C194.988 19.452 194.556 19.26 194.012 19.26C193.452 19.26 192.996 19.452 192.644 19.836C192.308 20.204 192.14 20.74 192.14 21.444V28.5H187.604V21.444C187.604 20.74 187.444 20.204 187.124 19.836C186.804 19.452 186.364 19.26 185.804 19.26C185.244 19.26 184.796 19.452 184.46 19.836C184.124 20.204 183.956 20.74 183.956 21.444V28.5H179.396ZM202.501 28.5V23.82H207.229V28.5H202.501ZM220.898 26.844C219.522 28.156 217.81 28.812 215.762 28.812C213.714 28.812 212.01 28.164 210.65 26.868C209.306 25.556 208.634 23.956 208.634 22.068V22.02C208.634 20.132 209.314 18.532 210.674 17.22C212.05 15.892 213.762 15.228 215.81 15.228C217.858 15.228 219.562 15.884 220.922 17.196C222.282 18.508 222.962 20.1 222.962 21.972V22.02C222.962 23.908 222.274 25.516 220.898 26.844ZM215.81 24.948C216.626 24.948 217.282 24.668 217.778 24.108C218.29 23.548 218.546 22.868 218.546 22.068V22.02C218.546 21.204 218.282 20.508 217.754 19.932C217.226 19.356 216.562 19.068 215.762 19.068C214.946 19.068 214.29 19.348 213.794 19.908C213.298 20.468 213.05 21.156 213.05 21.972V22.02C213.05 22.82 213.314 23.508 213.842 24.084C214.37 24.66 215.026 24.948 215.81 24.948ZM224.888 28.5V15.516H229.448V18.132C230.28 16.164 231.648 15.22 233.552 15.3V20.1H233.168C230.688 20.1 229.448 21.548 229.448 24.444V28.5H224.888ZM241.303 32.388C238.935 32.388 236.775 31.892 234.823 30.9L236.287 27.876C237.791 28.692 239.303 29.1 240.823 29.1C243.079 29.1 244.207 28.036 244.207 25.908V25.404C243.055 26.7 241.727 27.348 240.223 27.348C238.575 27.348 237.199 26.796 236.095 25.692C234.991 24.588 234.439 23.132 234.439 21.324V21.276C234.439 19.468 234.983 18.012 236.071 16.908C237.175 15.788 238.503 15.228 240.055 15.228C241.639 15.228 242.999 15.836 244.135 17.052V15.516H248.695V25.38C248.695 27.732 248.135 29.46 247.015 30.564C245.847 31.78 243.943 32.388 241.303 32.388ZM241.567 23.844C242.335 23.844 242.967 23.604 243.463 23.124C243.975 22.644 244.231 22.044 244.231 21.324V21.276C244.231 20.556 243.975 19.956 243.463 19.476C242.967 18.996 242.335 18.756 241.567 18.756C240.783 18.756 240.143 18.996 239.647 19.476C239.151 19.956 238.903 20.564 238.903 21.3V21.348C238.903 22.068 239.151 22.668 239.647 23.148C240.143 23.612 240.783 23.844 241.567 23.844Z" fill="black"/>
</svg>
