<svg width="40" height="40" viewBox="0 0 40 40" fill="none" xmlns="http://www.w3.org/2000/svg">
<rect x="2.13281" y="2.13266" width="35.7347" height="35.7347" rx="9.5" stroke="#FFA833"/>
<path d="M20.625 12.5C16.8342 12.5 13.75 15.5842 13.75 19.375C13.75 23.1658 16.8342 26.25 20.625 26.25C21.8339 26.25 23.0227 25.9319 24.0633 25.3298L23.2031 23.8418C22.4235 24.2929 21.5318 24.5313 20.625 24.5313C17.7817 24.5313 15.4687 22.2183 15.4687 19.375C15.4687 16.5317 17.7817 14.2187 20.625 14.2187C23.4683 14.2187 25.7813 16.5317 25.7813 19.375V20.1236C25.7813 20.6859 25.42 21.0937 24.9219 21.0937C24.4481 21.0937 24.0625 20.7081 24.0625 20.2344V16.7969H22.8745C22.27 16.2687 21.4889 15.9375 20.625 15.9375C18.7296 15.9375 17.1875 17.4796 17.1875 19.375C17.1875 21.2704 18.7296 22.8125 20.625 22.8125C21.5276 22.8125 22.3437 22.4556 22.9577 21.8845C23.4309 22.447 24.131 22.8125 24.9219 22.8125C26.3675 22.8125 27.5 21.6313 27.5 20.1236V19.375C27.5 15.5842 24.4158 12.5 20.625 12.5V12.5ZM20.625 21.0937C19.6771 21.0937 18.9063 20.3229 18.9063 19.375C18.9063 18.4271 19.6771 17.6563 20.625 17.6563C21.5729 17.6563 22.3437 18.4271 22.3437 19.375C22.3437 20.3229 21.5729 21.0937 20.625 21.0937Z" fill="#FFA833"/>
</svg>
