<svg width="40" height="40" viewBox="0 0 40 40" fill="none" xmlns="http://www.w3.org/2000/svg">
<rect x="2.13281" y="2.13266" width="35.7347" height="35.7347" rx="9.5" stroke="#F5823D"/>
<path fill-rule="evenodd" clip-rule="evenodd" d="M25.8675 21.4253C24.5386 22.7335 22.7949 23.5585 20.9239 23.7643L24.093 26.883C24.3018 27.0883 24.4191 27.3664 24.4191 27.6563C24.4191 27.9462 24.3018 28.2243 24.093 28.4296C23.99 28.5311 23.8676 28.6117 23.7327 28.6667C23.5979 28.7217 23.4533 28.75 23.3073 28.75C23.1612 28.75 23.0166 28.7217 22.8818 28.6667C22.7469 28.6117 22.6245 28.5311 22.5215 28.4296L19.9729 25.9221L17.4231 28.4296C17.2119 28.6238 16.9319 28.7297 16.6425 28.7249C16.3531 28.7201 16.077 28.6049 15.8726 28.4038C15.6683 28.2027 15.5518 27.9315 15.5479 27.6476C15.5439 27.3637 15.6528 27.0895 15.8515 26.883L19.0206 23.7643C17.1496 23.5585 15.4059 22.7335 14.077 21.4253C13.9734 21.3237 13.8912 21.2032 13.8351 21.0705C13.779 20.9377 13.7501 20.7955 13.75 20.6518C13.7499 20.5081 13.7787 20.3659 13.8347 20.2331C13.8907 20.1003 13.9728 19.9797 14.0764 19.8781C14.1799 19.7764 14.3028 19.6958 14.4381 19.6408C14.5734 19.5857 14.7185 19.5574 14.8649 19.5573C15.0114 19.5573 15.1565 19.5855 15.2918 19.6404C15.4272 19.6953 15.5501 19.7759 15.6538 19.8774C16.2216 20.4346 16.8957 20.8765 17.6377 21.1781C18.3797 21.4796 19.175 21.6348 19.9781 21.6348C20.7813 21.6348 21.5766 21.4796 22.3185 21.1781C23.0605 20.8765 23.7347 20.4346 24.3025 19.8774C24.4035 19.7655 24.5268 19.6752 24.6648 19.6119C24.8027 19.5486 24.9525 19.5138 25.1048 19.5095C25.2571 19.5053 25.4086 19.5317 25.55 19.5873C25.6915 19.6428 25.8198 19.7261 25.9271 19.8322C26.0343 19.9383 26.1183 20.0649 26.1737 20.2041C26.2291 20.3432 26.2548 20.4921 26.2493 20.6414C26.2437 20.7907 26.2069 20.9373 26.1413 21.0722C26.0756 21.207 25.9824 21.3272 25.8675 21.4253ZM19.9729 19.9987C19.0903 20.0012 18.2268 19.7468 17.4917 19.2677C16.7566 18.7885 16.183 18.1062 15.8435 17.3072C15.5039 16.5081 15.4138 15.6282 15.5844 14.7788C15.755 13.9294 16.1787 13.1488 16.8019 12.5357C17.425 11.9227 18.2196 11.5048 19.0851 11.335C19.9505 11.1652 20.8479 11.251 21.6635 11.5818C22.4792 11.9125 23.1765 12.4731 23.6671 13.1927C24.1577 13.9124 24.4196 14.7586 24.4196 15.6243C24.4203 16.7825 23.9524 17.8936 23.1187 18.7137C22.2851 19.5338 21.1537 19.996 19.9729 19.9987ZM19.9729 13.4359C19.5316 13.4346 19.0999 13.5618 18.7323 13.8014C18.3648 14.0409 18.078 14.3821 17.9082 14.7816C17.7384 15.1812 17.6933 15.6211 17.7787 16.0458C17.864 16.4705 18.0758 16.8608 18.3874 17.1673C18.699 17.4739 19.0963 17.6828 19.529 17.7677C19.9617 17.8526 20.4104 17.8097 20.8182 17.6443C21.2261 17.479 21.5747 17.1986 21.82 16.8388C22.0653 16.479 22.1963 16.0559 22.1963 15.623C22.1966 15.044 21.9627 14.4884 21.5458 14.0784C21.129 13.6683 20.5633 13.4372 19.9729 13.4359Z" fill="#F5823D"/>
</svg>
