<svg width="36" height="30" viewBox="0 0 36 30" fill="none" xmlns="http://www.w3.org/2000/svg">
<path fill-rule="evenodd" clip-rule="evenodd" d="M13.4918 1.93921H28.6689C30.497 1.93921 31.4111 1.93921 32.0827 2.30556C32.6727 2.62738 33.1375 3.13798 33.4027 3.7555C33.7045 4.45844 33.6189 5.36851 33.4478 7.18864L32.2176 20.2698C32.0731 21.806 32.0009 22.574 31.6552 23.1547C31.3509 23.6661 30.9012 24.0755 30.3636 24.3306C29.7531 24.6204 28.9816 24.6204 27.4387 24.6204H9.15988C7.61693 24.6204 6.84546 24.6204 6.23497 24.3306C5.6973 24.0755 5.24768 23.6661 4.94329 23.1547C4.59767 22.574 4.52543 21.806 4.38097 20.2698L3.15076 7.18863C2.97959 5.36851 2.89401 4.45844 3.19586 3.7555C3.46103 3.13798 3.92586 2.62738 4.51584 2.30556C4.87256 2.11097 5.29768 2.01974 5.89184 1.97697C5.92075 1.79306 5.96616 1.6378 6.03527 1.49646C6.22362 1.11126 6.53079 0.796789 6.91145 0.599434C7.34436 0.375 7.91641 0.375 9.06052 0.375H10.3294C11.4735 0.375 12.0455 0.375 12.4784 0.599434C12.8591 0.796789 13.1663 1.11126 13.3546 1.49646C13.419 1.62802 13.4628 1.77165 13.4918 1.93921Z" fill="#E3D216"/>
<path d="M0.775792 10.8541C0.507829 8.96565 0.373847 8.0214 0.66057 7.28777C0.912272 6.64374 1.37872 6.10643 1.981 5.76675C2.66708 5.37981 3.62078 5.37981 5.52819 5.37981H31.0705C32.9779 5.37981 33.9316 5.37981 34.6177 5.76675C35.22 6.10643 35.6864 6.64374 35.9381 7.28777C36.2248 8.0214 36.0909 8.96565 35.8229 10.8541L33.7448 25.4995C33.5373 26.9623 33.4335 27.6936 33.0809 28.2438C32.7702 28.7287 32.3265 29.1139 31.8028 29.3534C31.2085 29.6252 30.4698 29.6252 28.9924 29.6252H7.60626C6.12886 29.6252 5.39016 29.6252 4.79588 29.3534C4.27219 29.1139 3.82849 28.7287 3.51778 28.2438C3.1652 27.6936 3.06142 26.9623 2.85387 25.4995L0.775792 10.8541Z" fill="#F9EA4A"/>
<path d="M13.199 11C12.0789 11 11.5189 11 11.091 11.218C10.7147 11.4097 10.4088 11.7157 10.217 12.092C9.99902 12.5198 9.99902 13.0799 9.99902 14.2V20.4513C9.99902 21.5714 9.99902 22.1314 10.217 22.5593C10.4088 22.9356 10.7147 23.2415 11.091 23.4333C11.5189 23.6513 12.0789 23.6513 13.199 23.6513H22.799C23.9191 23.6513 24.4792 23.6513 24.907 23.4333C25.2833 23.2415 25.5893 22.9356 25.781 22.5593C25.999 22.1314 25.999 21.5714 25.999 20.4513V14.2C25.999 13.0799 25.999 12.5198 25.781 12.092C25.5893 11.7157 25.2833 11.4097 24.907 11.218C24.4792 11 23.9191 11 22.799 11H13.199ZM15.1615 13.2616C16.0407 13.2616 16.7534 13.9743 16.7534 14.8533C16.7534 15.7326 16.0407 16.4453 15.1615 16.4453C14.2825 16.4453 13.5698 15.7326 13.5698 14.8533C13.5698 13.9743 14.2825 13.2616 15.1615 13.2616ZM11.6316 21.5667C11.6316 21.5667 11.6317 21.5667 11.6317 21.5667L13.9744 17.9971C14.1087 17.7925 14.3307 17.6623 14.5749 17.6448C14.819 17.6274 15.0571 17.7247 15.219 17.9084C15.9219 18.705 17.1899 18.6151 17.7733 17.7273L19.1441 15.6416C19.2891 15.4209 19.535 15.2878 19.7992 15.2878C20.0631 15.2875 20.3096 15.4201 20.4549 15.6404L21.0909 16.604C22.1556 18.2173 22.688 19.024 22.6459 19.6924C22.6092 20.2747 22.3201 20.812 21.8542 21.1634C21.3196 21.5667 20.3531 21.5667 18.4201 21.5667H11.6317C11.6317 21.5667 11.6316 21.5667 11.6316 21.5667Z" fill="black"/>
</svg>
