<svg width="24" height="24" viewBox="0 0 24 24" fill="none" xmlns="http://www.w3.org/2000/svg">
<path d="M2.25 16.774L6.68512 12.4356L10.2314 15.9116L15.5463 10.6932L21.75 16.774M21.75 20.25C18.6293 19.1093 15.3304 18.5077 12 18.472C8.66957 18.5077 5.37069 19.1093 2.25 20.25V5.48357C5.37344 4.35801 8.67224 3.77148 12 3.75C15.3278 3.77148 18.6266 4.35801 21.75 5.48357V20.25ZM12 8.95959C12 9.91701 11.2082 10.6932 10.2314 10.6932C9.25462 10.6932 8.46279 9.91701 8.46279 8.95959C8.46279 8.00217 9.25462 7.22602 10.2314 7.22602C11.2082 7.22602 12 8.00217 12 8.95959Z" stroke="#FA3277" stroke-width="2" stroke-miterlimit="10"/>
</svg>
