<svg width="24" height="24" viewBox="0 0 24 24" fill="none" xmlns="http://www.w3.org/2000/svg">
<path d="M4.81166 13.9447L4.81163 13.9448C4.41288 14.3839 3.96604 14.9314 3.61731 15.5095L4.81166 13.9447ZM4.81166 13.9447C5.45119 13.2403 6.39115 13.1379 7.133 13.6343L7.13314 13.6344M4.81166 13.9447L7.13314 13.6344M7.13314 13.6344C7.23971 13.7057 7.34097 13.7742 7.4401 13.8413C7.4401 13.8413 7.44011 13.8413 7.44011 13.8413L7.45785 13.8533L7.45821 13.8535L7.49141 13.876C8.0017 14.2218 8.4778 14.5444 9.08167 14.8015L9.47343 13.8815M7.13314 13.6344L9.47343 13.8815M16.3401 13.9431L16.34 13.9432L16.3137 13.9608C15.8763 14.2551 15.4607 14.5347 14.9258 14.7743M16.3401 13.9431L12 14.3118C10.8076 14.3118 10.0548 14.129 9.47343 13.8815M16.3401 13.9431C16.5119 13.8274 16.6912 13.7069 16.8943 13.5755L16.3401 13.9431ZM14.9258 14.7743L14.5171 13.8616L14.9259 14.7742C14.9259 14.7743 14.9258 14.7743 14.9258 14.7743ZM14.9258 14.7743C14.2061 15.0966 13.3229 15.3118 12 15.3118C10.6962 15.3118 9.80668 15.1102 9.08167 14.8015L9.47343 13.8815M19.1541 13.9072C18.5299 13.2246 17.6194 13.1067 16.8944 13.5755L19.1541 13.9072ZM19.1541 13.9072C19.556 14.3466 20.0113 14.8993 20.3676 15.4847M19.1541 13.9072L20.3676 15.4847M20.3676 15.4847C20.718 16.0603 21 16.7106 21 17.3393M20.3676 15.4847L21 17.3393M21 17.3393V20.3673M21 17.3393V20.3673M21 20.3673C21 21.9044 19.876 23 18.6667 23M21 20.3673L18.6667 23M18.6667 23H5.33333M18.6667 23H5.33333M5.33333 23C4.12399 23 3 21.9044 3 20.3673M5.33333 23L3 20.3673M3 20.3673V17.3393M3 20.3673V17.3393M3 17.3393C3 16.7192 3.27426 16.0783 3.61729 15.5096L3 17.3393ZM16.8824 5.85366C16.8824 8.52965 14.701 10.7073 12 10.7073C9.29894 10.7073 7.11765 8.52965 7.11765 5.85366C7.11765 3.17766 9.29894 1 12 1C14.701 1 16.8824 3.17766 16.8824 5.85366Z" stroke="#FA3277" stroke-width="2"/>
</svg>
