<svg width="36" height="36" viewBox="0 0 36 36" fill="none" xmlns="http://www.w3.org/2000/svg">
<g clip-path="url(#clip0_331_2467)">
<path fill-rule="evenodd" clip-rule="evenodd" d="M13.4918 4.93921H28.6689C30.497 4.93921 31.4111 4.93921 32.0827 5.30556C32.6727 5.62738 33.1375 6.13798 33.4027 6.7555C33.7045 7.45844 33.6189 8.36851 33.4478 10.1886L32.2176 23.2698C32.0731 24.806 32.0009 25.574 31.6552 26.1547C31.3509 26.6661 30.9012 27.0755 30.3636 27.3306C29.7531 27.6204 28.9816 27.6204 27.4387 27.6204H9.15988C7.61693 27.6204 6.84546 27.6204 6.23497 27.3306C5.6973 27.0755 5.24768 26.6661 4.94329 26.1547C4.59767 25.574 4.52543 24.806 4.38097 23.2698L3.15076 10.1886C2.97959 8.36851 2.89401 7.45844 3.19586 6.7555C3.46103 6.13798 3.92586 5.62738 4.51584 5.30556C4.87256 5.11097 5.29768 5.01974 5.89184 4.97697C5.92075 4.79306 5.96616 4.6378 6.03527 4.49646C6.22362 4.11126 6.53079 3.79679 6.91145 3.59943C7.34436 3.375 7.91641 3.375 9.06052 3.375H10.3294C11.4735 3.375 12.0455 3.375 12.4784 3.59943C12.8591 3.79679 13.1663 4.11126 13.3546 4.49646C13.419 4.62802 13.4628 4.77165 13.4918 4.93921Z" fill="#E3D216"/>
<path d="M0.775792 13.8542C0.507829 11.9657 0.373847 11.0214 0.66057 10.2878C0.912272 9.64376 1.37872 9.10645 1.981 8.76677C2.66708 8.37982 3.62078 8.37982 5.52819 8.37982H31.0705C32.9779 8.37982 33.9316 8.37982 34.6177 8.76677C35.22 9.10645 35.6864 9.64376 35.9381 10.2878C36.2248 11.0214 36.0909 11.9657 35.8229 13.8542L33.7448 28.4995C33.5373 29.9623 33.4335 30.6937 33.0809 31.2439C32.7702 31.7287 32.3265 32.1139 31.8028 32.3534C31.2085 32.6252 30.4698 32.6252 28.9924 32.6252H7.60626C6.12886 32.6252 5.39016 32.6252 4.79588 32.3534C4.27219 32.1139 3.82849 31.7287 3.51778 31.2439C3.1652 30.6937 3.06142 29.9623 2.85387 28.4995L0.775792 13.8542Z" fill="#F9EA4A"/>
<path d="M22.41 17.2912L20.0348 14.8863C19.3581 14.2011 19.0197 13.8585 18.6045 13.6793L18.599 15.5251C18.599 17.1161 18.599 17.9116 19.0383 18.4058C19.4777 18.9001 20.1848 18.9001 21.599 18.9001H23.7471C23.5295 18.4247 23.1401 18.0304 22.41 17.2912Z" fill="black"/>
<path fill-rule="evenodd" clip-rule="evenodd" d="M16.799 27H19.199C21.4617 27 22.5932 27 23.2961 26.2092C23.999 25.4184 23.999 24.1456 23.999 21.6V21.305C23.999 20.7158 23.999 20.2732 23.9735 19.9126H21.5421C20.8838 19.9126 20.3021 19.9127 19.8332 19.8418C19.3249 19.7649 18.8167 19.5884 18.402 19.1217C17.9872 18.6552 17.8303 18.0834 17.762 17.5116C17.6989 16.9841 17.699 16.3296 17.699 15.5891L17.7045 13.6759C17.7047 13.6202 17.709 13.5652 17.717 13.5112C17.4719 13.5 17.1805 13.5 16.8169 13.5C14.5422 13.5 13.4049 13.5 12.702 14.2908C11.999 15.0816 11.999 16.3544 11.999 18.9V21.6C11.999 24.1456 11.999 25.4184 12.702 26.2092C13.4049 27 14.5363 27 16.799 27Z" fill="black"/>
</g>
<defs>
<clipPath id="clip0_331_2467">
<rect width="36" height="36" fill="white"/>
</clipPath>
</defs>
</svg>
