<svg width="24" height="24" viewBox="0 0 24 24" fill="none" xmlns="http://www.w3.org/2000/svg">
<path d="M14.392 2.8181C14.3085 2.48422 14.0085 2.25 13.6644 2.25H10.3356C9.9914 2.25 9.69142 2.48422 9.60795 2.8181L9.11235 4.80049C9.06309 4.99752 8.93604 5.16615 8.76023 5.26782L7.79171 5.82797C7.61556 5.92985 7.40558 5.95578 7.20995 5.89981L5.24425 5.3375C4.91337 5.24285 4.56053 5.38554 4.38845 5.68358L2.72404 8.56644C2.55196 8.86448 2.60481 9.24139 2.85222 9.48061L4.32205 10.9018C4.46819 11.0431 4.55071 11.2377 4.55071 11.441L4.55071 12.559C4.55071 12.7623 4.46819 12.9569 4.32205 13.0982L2.85222 14.5194C2.60481 14.7586 2.55196 15.1355 2.72404 15.4336L4.38845 18.3164C4.56053 18.6145 4.91337 18.7572 5.24425 18.6625L7.20115 18.1027C7.40196 18.0453 7.61762 18.0742 7.79622 18.1824L8.51881 18.6205C8.67091 18.7127 8.78528 18.8559 8.84153 19.0247L9.57903 21.2372C9.68111 21.5434 9.96772 21.75 10.2905 21.75H13.7094C14.0322 21.75 14.3188 21.5434 14.4209 21.2372L15.1576 19.027C15.2144 18.8568 15.3301 18.7127 15.484 18.6206L16.2205 18.1799C16.3988 18.0732 16.6133 18.0452 16.813 18.1027L18.7551 18.6614C19.0863 18.7567 19.4397 18.6141 19.612 18.3156L21.2781 15.4299C21.4492 15.1336 21.398 14.759 21.1536 14.5194L19.7036 13.0976C19.5597 12.9566 19.4787 12.7636 19.4787 12.5621V11.4379C19.4787 11.2364 19.5597 11.0434 19.7036 10.9024L21.1536 9.4806C21.398 9.24102 21.4492 8.86643 21.2781 8.57008L19.612 5.68437C19.4397 5.38596 19.0863 5.24334 18.7551 5.3386L16.8047 5.89973C16.6099 5.95577 16.4007 5.93058 16.2248 5.8299L15.2422 5.26757C15.0649 5.1661 14.9366 4.99671 14.8871 4.79853L14.392 2.8181Z" stroke="#FA3277" stroke-width="2" stroke-linejoin="round"/>
<path d="M15.75 12C15.75 14.0711 14.071 15.75 12 15.75C9.9289 15.75 8.24997 14.0711 8.24997 12C8.24997 9.92893 9.9289 8.25 12 8.25C14.071 8.25 15.75 9.92893 15.75 12Z" stroke="#FA3277" stroke-width="2" stroke-linejoin="round"/>
</svg>
