<svg width="36" height="36" viewBox="0 0 36 36" fill="none" xmlns="http://www.w3.org/2000/svg">
<g clip-path="url(#clip0_331_4425)">
<path fill-rule="evenodd" clip-rule="evenodd" d="M13.4918 4.93921H28.6689C30.497 4.93921 31.4111 4.93921 32.0827 5.30556C32.6727 5.62738 33.1375 6.13798 33.4027 6.7555C33.7045 7.45844 33.6189 8.36851 33.4478 10.1886L32.2176 23.2698C32.0731 24.806 32.0009 25.574 31.6552 26.1547C31.3509 26.6661 30.9012 27.0755 30.3636 27.3306C29.7531 27.6204 28.9816 27.6204 27.4387 27.6204H9.15988C7.61693 27.6204 6.84546 27.6204 6.23497 27.3306C5.6973 27.0755 5.24768 26.6661 4.94329 26.1547C4.59767 25.574 4.52543 24.806 4.38097 23.2698L3.15076 10.1886C2.97959 8.36851 2.89401 7.45844 3.19586 6.7555C3.46103 6.13798 3.92586 5.62738 4.51584 5.30556C4.87256 5.11097 5.29768 5.01974 5.89184 4.97697C5.92075 4.79306 5.96616 4.6378 6.03527 4.49646C6.22362 4.11126 6.53079 3.79679 6.91145 3.59943C7.34436 3.375 7.91641 3.375 9.06052 3.375H10.3294C11.4735 3.375 12.0455 3.375 12.4784 3.59943C12.8591 3.79679 13.1663 4.11126 13.3546 4.49646C13.419 4.62802 13.4628 4.77165 13.4918 4.93921Z" fill="#E3D216"/>
<path d="M0.775792 13.8542C0.507829 11.9657 0.373847 11.0214 0.66057 10.2878C0.912272 9.64376 1.37872 9.10645 1.981 8.76677C2.66708 8.37982 3.62078 8.37982 5.52819 8.37982H31.0705C32.9779 8.37982 33.9316 8.37982 34.6177 8.76677C35.22 9.10645 35.6864 9.64376 35.9381 10.2878C36.2248 11.0214 36.0909 11.9657 35.8229 13.8542L33.7448 28.4995C33.5373 29.9623 33.4335 30.6937 33.0809 31.2439C32.7702 31.7287 32.3265 32.1139 31.8028 32.3534C31.2085 32.6252 30.4698 32.6252 28.9924 32.6252H7.60626C6.12886 32.6252 5.39016 32.6252 4.79588 32.3534C4.27219 32.1139 3.82849 31.7287 3.51778 31.2439C3.1652 30.6937 3.06142 29.9623 2.85387 28.4995L0.775792 13.8542Z" fill="#F9EA4A"/>
<path d="M12.374 16.0529C12.374 15.2643 13.0133 14.625 13.8019 14.625H16.6577C17.4463 14.625 18.0856 15.2643 18.0856 16.0529V18.9087C18.0856 19.6973 17.4463 20.3365 16.6577 20.3365H13.8019C13.0133 20.3365 12.374 19.6973 12.374 18.9087V16.0529Z" fill="black"/>
<path d="M12.374 22.7163C12.374 21.9277 13.0133 21.2885 13.8019 21.2885H16.6577C17.4463 21.2885 18.0856 21.9277 18.0856 22.7163V25.5721C18.0856 26.3607 17.4463 27 16.6577 27H13.8019C13.0133 27 12.374 26.3607 12.374 25.5721V22.7163Z" fill="black"/>
<path d="M19.0375 16.0529C19.0375 15.2643 19.6768 14.625 20.4654 14.625H23.3211C24.1097 14.625 24.749 15.2643 24.749 16.0529V18.9087C24.749 19.6973 24.1097 20.3365 23.3211 20.3365H20.4654C19.6768 20.3365 19.0375 19.6973 19.0375 18.9087V16.0529Z" fill="black"/>
<path d="M19.0375 22.7163C19.0375 21.9277 19.6768 21.2885 20.4654 21.2885H23.3211C24.1097 21.2885 24.749 21.9277 24.749 22.7163V25.5721C24.749 26.3607 24.1097 27 23.3211 27H20.4654C19.6768 27 19.0375 26.3607 19.0375 25.5721V22.7163Z" fill="black"/>
</g>
<defs>
<clipPath id="clip0_331_4425">
<rect width="36" height="36" fill="white"/>
</clipPath>
</defs>
</svg>
