<svg width="40" height="40" viewBox="0 0 40 40" fill="none" xmlns="http://www.w3.org/2000/svg">
<rect x="2.13281" y="2.13257" width="35.7347" height="35.7347" rx="9.5" stroke="#1D9BF0"/>
<path d="M26.9152 17.0863C26.9218 17.2359 26.9218 17.3787 26.9218 17.5283C26.9283 22.0639 23.596 27.3 17.502 27.3C15.7047 27.3 13.9401 26.7627 12.4248 25.7563C12.6872 25.7903 12.9496 25.8039 13.212 25.8039C14.701 25.8039 16.1507 25.2871 17.3249 24.3283C15.908 24.3011 14.6617 23.3423 14.2287 21.9415C14.7273 22.0435 15.2389 22.0231 15.7243 21.8803C14.1828 21.5675 13.0742 20.1599 13.0677 18.5211C13.0677 18.5075 13.0677 18.4939 13.0677 18.4803C13.5268 18.7455 14.0451 18.8951 14.5698 18.9087C13.1201 17.9023 12.6675 15.8963 13.5465 14.3255C15.2324 16.4743 17.7119 17.7731 20.3752 17.9159C20.1062 16.7259 20.4736 15.4747 21.3329 14.6315C22.6645 13.3327 24.7636 13.4007 26.0231 14.7811C26.7643 14.6315 27.4793 14.3459 28.1287 13.9447C27.8795 14.7403 27.3613 15.4135 26.6725 15.8419C27.3285 15.7603 27.9713 15.5767 28.5748 15.3047C28.1287 15.9983 27.5646 16.5967 26.9152 17.0863Z" fill="#1D9BF0"/>
</svg>
