<svg width="24" height="24" viewBox="0 0 24 24" fill="none" xmlns="http://www.w3.org/2000/svg">
<path d="M5.18185 14.2808L5.18181 14.2809C4.79464 14.7073 4.37109 15.2279 4.04547 15.7678L5.18185 14.2808ZM5.18185 14.2808C5.65755 13.7569 6.32235 13.6935 6.85495 14.0498L6.85515 14.05M5.18185 14.2808L6.85515 14.05M6.85515 14.05C6.96042 14.1204 7.0606 14.1882 7.15986 14.2554L7.17742 14.2673C7.17742 14.2673 7.17743 14.2673 7.17743 14.2673C7.1776 14.2674 7.17778 14.2675 7.17795 14.2676C7.19295 14.2778 7.20795 14.2879 7.22296 14.2981C7.72538 14.6386 8.23674 14.9852 8.88579 15.2616L9.47343 13.8815L8.88579 15.2616C9.68263 15.6009 10.6406 15.8118 12 15.8118C13.3824 15.8118 14.3369 15.5859 15.1302 15.2306C15.7048 14.9733 16.1514 14.6727 16.5831 14.3822L16.619 14.358L16.6193 14.3579M6.85515 14.05L16.6193 14.3579M16.6193 14.3579C16.7911 14.2422 16.9671 14.1239 17.1659 13.9953M16.6193 14.3579L17.1659 13.9953M17.1659 13.9953C17.6752 13.6661 18.3169 13.7326 18.7851 14.2446L17.1659 13.9953ZM16.3824 5.85366C16.3824 8.2512 14.4272 10.2073 12 10.2073C9.57277 10.2073 7.61765 8.2512 7.61765 5.85366C7.61765 3.4561 9.57277 1.5 12 1.5C14.4272 1.5 16.3824 3.45611 16.3824 5.85366ZM18.7852 14.2446C19.1755 14.6715 19.6074 15.1975 19.9405 15.7446C20.2744 16.2931 20.5 16.8479 20.5 17.3393V20.3673C20.5 21.6695 19.5603 22.5 18.6667 22.5H5.33333C4.43968 22.5 3.5 21.6695 3.5 20.3673V17.3393C3.5 16.855 3.71915 16.3088 4.04544 15.7678L18.7852 14.2446Z" stroke="black" stroke-width="3"/>
</svg>
