<svg width="32" height="32" viewBox="0 0 32 32" fill="none" xmlns="http://www.w3.org/2000/svg">
<circle cx="16" cy="16" r="15.5" fill="#F9EA4A" stroke="black"/>
<mask id="mask0_342_2145" style="mask-type:alpha" maskUnits="userSpaceOnUse" x="0" y="0" width="32" height="32">
<circle cx="16" cy="16" r="15.5" fill="#F9EA4A" stroke="black"/>
</mask>
<g mask="url(#mask0_342_2145)">
<path d="M11.3541 19.6144C11.9237 20.1589 12.3852 20.615 12.4556 20.7373L12.465 20.8596C12.468 20.9863 12.4724 21.1134 12.4762 21.2401C12.485 21.533 12.4937 21.8258 12.4937 22.1186C12.4933 22.4254 12.4704 22.7319 12.4252 23.0354C12.3597 23.5031 12.2144 23.9562 11.9957 24.3749C11.7064 24.9198 11.3029 25.396 10.8126 25.7708C10.7562 25.8152 10.6969 25.8578 10.6377 25.8985C10.4425 26.0329 10.2366 26.1511 10.0221 26.2519L5.51758 28.362C8.50517 30.7031 12.188 31.9831 15.9845 31.9998C19.781 32.0166 23.4749 30.7692 26.4831 28.4545L18.9311 25.386V25.3555L18.9173 24.8865L18.9067 24.5319C19.2492 24.5985 19.6059 24.5661 19.9339 24.4353C20.3563 24.2668 20.7007 23.9471 20.9 23.5386L20.9796 23.3757C21.8674 21.5602 23.1995 18.8355 23.0181 17.8031C22.8976 17.1211 22.6902 16.6305 22.4938 16.2935C24.1275 14.0888 24.4861 11.4028 22.6293 9.07209C22.5728 9.00085 22.5154 8.93055 22.4571 8.86024C22.3213 8.69249 22.1812 8.52814 22.0368 8.36717C21.574 7.85745 21.0694 7.39768 20.4631 7.08222C19.2773 6.46704 17.7535 6.57898 16.4696 6.77972C13.773 7.20248 10.5534 9.03046 9.54341 11.6827C9.03585 13.0368 8.93687 14.51 9.2587 15.9198C9.58054 17.3297 10.3091 18.6142 11.3541 19.6144Z" fill="black"/>
</g>
</svg>
