<svg width="36" height="36" viewBox="0 0 36 36" fill="none" xmlns="http://www.w3.org/2000/svg">
<g clip-path="url(#clip0_331_3757)">
<path fill-rule="evenodd" clip-rule="evenodd" d="M13.4918 4.93921H28.6689C30.497 4.93921 31.4111 4.93921 32.0827 5.30556C32.6727 5.62738 33.1375 6.13798 33.4027 6.7555C33.7045 7.45844 33.6189 8.36851 33.4478 10.1886L32.2176 23.2698C32.0731 24.806 32.0009 25.574 31.6552 26.1547C31.3509 26.6661 30.9012 27.0755 30.3636 27.3306C29.7531 27.6204 28.9816 27.6204 27.4387 27.6204H9.15988C7.61693 27.6204 6.84546 27.6204 6.23497 27.3306C5.6973 27.0755 5.24768 26.6661 4.94329 26.1547C4.59767 25.574 4.52543 24.806 4.38097 23.2698L3.15076 10.1886C2.97959 8.36851 2.89401 7.45844 3.19586 6.7555C3.46103 6.13798 3.92586 5.62738 4.51584 5.30556C4.87256 5.11097 5.29768 5.01974 5.89184 4.97697C5.92075 4.79306 5.96616 4.6378 6.03527 4.49646C6.22362 4.11126 6.53079 3.79679 6.91145 3.59943C7.34436 3.375 7.91641 3.375 9.06052 3.375H10.3294C11.4735 3.375 12.0455 3.375 12.4784 3.59943C12.8591 3.79679 13.1663 4.11126 13.3546 4.49646C13.419 4.62802 13.4628 4.77165 13.4918 4.93921Z" fill="#E3D216"/>
<path d="M0.775792 13.8541C0.507829 11.9656 0.373847 11.0214 0.66057 10.2878C0.912272 9.64374 1.37872 9.10643 1.981 8.76675C2.66708 8.37981 3.62078 8.37981 5.52819 8.37981H31.0705C32.9779 8.37981 33.9316 8.37981 34.6177 8.76675C35.22 9.10643 35.6864 9.64374 35.9381 10.2878C36.2248 11.0214 36.0909 11.9656 35.8229 13.8541L33.7448 28.4995C33.5373 29.9623 33.4335 30.6936 33.0809 31.2438C32.7702 31.7287 32.3265 32.1139 31.8028 32.3534C31.2085 32.6252 30.4698 32.6252 28.9924 32.6252H7.60626C6.12886 32.6252 5.39016 32.6252 4.79588 32.3534C4.27219 32.1139 3.82849 31.7287 3.51778 31.2438C3.1652 30.6936 3.06142 29.9623 2.85387 28.4995L0.775792 13.8541Z" fill="#F9EA4A"/>
<path d="M21.2 17.2287C22.7752 18.1382 23.5628 18.5929 23.8271 19.1865C24.0576 19.7043 24.0576 20.2957 23.8271 20.8135C23.5628 21.4071 22.7752 21.8618 21.2 22.7713L18.8 24.1569C17.2248 25.0664 16.4372 25.5211 15.7909 25.4531C15.2272 25.3939 14.7151 25.0982 14.382 24.6397C14 24.1139 14 23.2045 14 21.3856L14 18.6144C14 16.7955 14 15.8861 14.382 15.3603C14.7151 14.9018 15.2272 14.6061 15.7909 14.5469C16.4372 14.4789 17.2248 14.9336 18.8 15.8431L21.2 17.2287Z" fill="black"/>
</g>
<defs>
<clipPath id="clip0_331_3757">
<rect width="36" height="36" fill="white"/>
</clipPath>
</defs>
</svg>
