<svg width="40" height="40" viewBox="0 0 40 40" fill="none" xmlns="http://www.w3.org/2000/svg">
<rect x="2.13281" y="2.13266" width="35.7347" height="35.7347" rx="9.5" stroke="#2461A5"/>
<path fill-rule="evenodd" clip-rule="evenodd" d="M25.48 22.0362C26.0216 22.5501 26.5932 23.0336 27.0789 23.5993C27.2935 23.8507 27.4966 24.1101 27.652 24.4018C27.8722 24.8165 27.6728 25.2729 27.2902 25.2977L24.9117 25.2966C24.2982 25.3461 23.8088 25.1061 23.3974 24.6985C23.0681 24.3725 22.7631 24.0255 22.4464 23.6885C22.3166 23.5508 22.1808 23.4212 22.0184 23.3187C21.6937 23.1139 21.4119 23.1766 21.2264 23.5057C21.0374 23.8405 20.9945 24.2112 20.976 24.5842C20.9505 25.1286 20.7812 25.2717 20.2186 25.2966C19.0162 25.3517 17.8752 25.1749 16.8151 24.5854C15.8806 24.0658 15.1559 23.3321 14.5251 22.5016C13.297 20.8843 12.3565 19.1072 11.5112 17.2803C11.3209 16.8687 11.46 16.6478 11.9273 16.64C12.7033 16.6253 13.4791 16.6264 14.2559 16.6389C14.5713 16.6434 14.7801 16.8192 14.9018 17.1088C15.3216 18.112 15.8353 19.0665 16.4801 19.9512C16.6518 20.1867 16.8269 20.4223 17.0762 20.588C17.352 20.7716 17.5621 20.7108 17.6918 20.4121C17.7742 20.2228 17.8102 20.0188 17.8288 19.816C17.8902 19.1183 17.8983 18.4218 17.7905 17.7266C17.7243 17.2926 17.4728 17.0117 17.0274 16.9296C16.8 16.8878 16.8339 16.8055 16.9439 16.6794C17.1351 16.4619 17.3149 16.3265 17.6734 16.3265H20.3614C20.7846 16.4077 20.8786 16.5925 20.9365 17.0063L20.9388 19.9083C20.9342 20.0685 21.0212 20.5439 21.3181 20.6499C21.5557 20.7254 21.7124 20.5407 21.8549 20.3942C22.4985 19.7303 22.9579 18.9458 23.3682 18.1334C23.5503 17.7761 23.7069 17.4051 23.8587 17.0345C23.9711 16.7594 24.1475 16.6241 24.4663 16.6301L27.0534 16.6323C27.1302 16.6323 27.2078 16.6334 27.2821 16.6458C27.718 16.718 27.8375 16.9002 27.7028 17.314C27.4907 17.9631 27.0779 18.504 26.6743 19.0475C26.2429 19.6277 25.7814 20.188 25.3536 20.7717C24.9605 21.3046 24.9917 21.5733 25.48 22.0362Z" fill="#2461A5"/>
</svg>
